<svg xmlns="http://www.w3.org/2000/svg" viewBox="0 0 338.57 341.01"><defs><style>.cls-1,.cls-2{fill:#fff;}.cls-1{stroke:#fff;stroke-miterlimit:10;stroke-width:8px;}</style></defs><g id="Layer_2" data-name="Layer 2"><g id="Layer_1-2" data-name="Layer 1"><path class="cls-1" d="M195,95.69,133.54,283.86a6,6,0,0,1-11.53-.52c-.08-.53-54.11-151.63-97.82-135.65-16.66,6-26.3-3.24-14.17-19.22,4.75-6.25,13.19-14.32,25.09-22.91,46.5-33.53,143.94-59.91,294.21-43,7.84.83,6.48,12.74-1.28,11.83-146.65-16.43-241,8.44-286,40.92-2.49,1.81-31.58,24.42-21.93,21.18,50.19-6.93,92.54,83.2,108.44,131L183.73,92C186.14,84.54,197.52,88.23,195,95.69Zm25.41,30.05c11.66-7.64,13.21.36,12.28,3.21L173,311.72c-.74,2.21-.19,3.2,1,3,8-1.74,11.91-17.35,22.57-13.15,10.23,4.08-18.77,26.68-23.62,30.41-8.76,6.58-24.31,9.57-18.23-9l51.65-157.37c2.69-8.12,3.95-23.4,10.44-36.24A11.15,11.15,0,0,1,220.44,125.74Z"/><path class="cls-2" d="M289.58,148.58c.12,56.44-35,110.95-87.09,133.24C81.84,332.33-36.83,213.05,10.75,92,45.13,5.3,152.46-28.21,228.66,26.83c38.51,27.58,61.57,74.61,60.92,121.75Zm-1.4,0c.09-55.68-37.12-106.46-88.92-125.44C110.22-10.64,12.61,52.3,11.33,148.58c.3,123.42,146,182.93,235,99.07a136.2,136.2,0,0,0,41.81-99.07Z"/></g></g></svg>